<svg xmlns="http://www.w3.org/2000/svg" version="1.1" xmlns:xlink="http://www.w3.org/1999/xlink" xmlns:svgjs="http://svgjs.dev/svgjs" width="1440" height="560" preserveAspectRatio="none" viewBox="0 0 1440 560"><g mask="url(&quot;#SvgjsMask1004&quot;)" fill="none"><path d="M389.76 149.14L392.39 149.14L392.39 151.77L389.76 151.77z" fill="rgba(217, 211, 211, 1)"></path><path d="M1190.88 157.77a48.03 48.03 0 1 0-43.84-85.47z" fill="rgba(192, 187, 159, 1)"></path><path d="M107.15 534.33L148.71 534.33L148.71 575.89L107.15 575.89z" stroke="rgba(217, 211, 211, 1)"></path><path d="M680.43 163.27L724.91 163.27L724.91 174.67L680.43 174.67z" stroke="rgba(192, 187, 159, 1)"></path><path d="M1318.27 527.92L1334.11 527.92L1334.11 543.76L1318.27 543.76z" fill="rgba(192, 187, 159, 1)"></path><path d="M655.27 284.3L684.96 284.3L684.96 338.48L655.27 338.48z" fill="rgba(217, 211, 211, 1)"></path><path d="M661.94 202.21L686.35 202.21L686.35 208.27L661.94 208.27z" stroke="rgba(192, 187, 159, 1)"></path><path d="M603.65 524.02 a29.92 29.92 0 1 0 59.84 0 a29.92 29.92 0 1 0 -59.84 0z" stroke="rgba(216, 222, 216, 1)"></path><path d="M241.42 183.27L282.84 183.27L282.84 218.05L241.42 218.05z" stroke="rgba(217, 211, 211, 1)"></path><path d="M993.63 14.87L1019.57 14.87L1019.57 40.81L993.63 40.81z" stroke="rgba(216, 222, 216, 1)"></path><path d="M185.27 434.15 a23.26 23.26 0 1 0 46.52 0 a23.26 23.26 0 1 0 -46.52 0z" stroke="rgba(216, 222, 216, 1)"></path><path d="M630.8 459.27 a43.83 43.83 0 1 0 87.66 0 a43.83 43.83 0 1 0 -87.66 0z" stroke="rgba(217, 211, 211, 1)"></path><path d="M1311.74 468.32L1320.78 468.32L1320.78 477.36L1311.74 477.36z" stroke="rgba(216, 222, 216, 1)"></path><path d="M848.85 272.22a23.97 23.97 0 1 0-42.55-22.09z" fill="rgba(216, 222, 216, 1)"></path><path d="M285.21 545.88L286.19 545.88L286.19 546.86L285.21 546.86z" stroke="rgba(216, 222, 216, 1)"></path><path d="M493.03 476.94a45.6 45.6 0 1 0-86.64 28.48z" fill="rgba(216, 222, 216, 1)"></path><path d="M126.65 532.37L169.7 532.37L169.7 575.42L126.65 575.42z" fill="rgba(217, 211, 211, 1)"></path><path d="M396.98 479.5L431.37 479.5L431.37 532.28L396.98 532.28z" fill="rgba(216, 222, 216, 1)"></path><path d="M359.55 319.2a37.96 37.96 0 1 0-67.65 34.46z" fill="rgba(216, 222, 216, 1)"></path><path d="M280.83 308.96L323.69 308.96L323.69 314.3L280.83 314.3z" stroke="rgba(217, 211, 211, 1)"></path><path d="M783.79 540.82L837.61 540.82L837.61 594.64L783.79 594.64z" fill="rgba(216, 222, 216, 1)"></path><path d="M1022.83 399.85L1078.36 399.85L1078.36 421.19L1022.83 421.19z" stroke="rgba(217, 211, 211, 1)"></path><path d="M896.39 433.85L902.23 433.85L902.23 454.52L896.39 454.52z" fill="rgba(217, 211, 211, 1)"></path><path d="M480.91 498.9a2.95 2.95 0 1 0-5.21 2.78z" stroke="rgba(192, 187, 159, 1)"></path><path d="M-1.65 470.31 a23.97 23.97 0 1 0 47.94 0 a23.97 23.97 0 1 0 -47.94 0z" fill="rgba(216, 222, 216, 1)"></path><path d="M1283.66 172.58 a54.71 54.71 0 1 0 109.42 0 a54.71 54.71 0 1 0 -109.42 0z" stroke="rgba(217, 211, 211, 1)"></path><path d="M449.65 446.53a35.91 35.91 0 1 0-8.01-71.37z" fill="rgba(217, 211, 211, 1)"></path><path d="M80.81 536.06 a14.04 14.04 0 1 0 28.08 0 a14.04 14.04 0 1 0 -28.08 0z" fill="rgba(216, 222, 216, 1)"></path><path d="M460.11 136.02L471.66 136.02L471.66 175.22L460.11 175.22z" stroke="rgba(217, 211, 211, 1)"></path><path d="M187.6 137.55a21.31 21.31 0 1 0-7.88 41.89z" stroke="rgba(217, 211, 211, 1)"></path><path d="M1022.41 21.48L1077.04 21.48L1077.04 24.07L1022.41 24.07z" fill="rgba(192, 187, 159, 1)"></path><path d="M806.03 490.76L860.67 490.76L860.67 508.52L806.03 508.52z" fill="rgba(192, 187, 159, 1)"></path><path d="M1378.94 4.44L1416.98 4.44L1416.98 59.63L1378.94 59.63z" stroke="rgba(216, 222, 216, 1)"></path></g><defs><mask id="SvgjsMask1004"><rect width="1440" height="560" fill="#ffffff"></rect></mask></defs></svg>